<?xml version="1.0" encoding="UTF-8" standalone="no"?>
<svg
   xmlns:dc="http://purl.org/dc/elements/1.1/"
   xmlns:cc="http://creativecommons.org/ns#"
   xmlns:rdf="http://www.w3.org/1999/02/22-rdf-syntax-ns#"
   xmlns:svg="http://www.w3.org/2000/svg"
   xmlns="http://www.w3.org/2000/svg"
   xmlns:sodipodi="http://sodipodi.sourceforge.net/DTD/sodipodi-0.dtd"
   xmlns:inkscape="http://www.inkscape.org/namespaces/inkscape"
   width="32"
   height="32"
   viewBox="0 0 8.4666666 8.4666666"
   version="1.1"
   id="svg8"
   inkscape:version="1.0.2-2 (e86c870879, 2021-01-15)"
   sodipodi:docname="maya_icons.svg"
   inkscape:export-filename="D:\DEV_SRC\RxOT\Ramses\Ramses-Maya\icons\ramses.png"
   inkscape:export-xdpi="384"
   inkscape:export-ydpi="384">
  <defs
     id="defs2">
    <style
       id="style1399">.cls-1{fill:#e3e3e3;}</style>
    <style
       id="style1399-1">.cls-1{fill:#e3e3e3;}</style>
    <style
       id="style1399-5">.cls-1{fill:#e3e3e3;}</style>
    <style
       id="style1399-8">.cls-1{fill:#e3e3e3;}</style>
    <style
       id="style1399-7">.cls-1{fill:#e3e3e3;}</style>
    <style
       id="style1399-1-5">.cls-1{fill:#e3e3e3;}</style>
    <style
       id="style1399-5-6">.cls-1{fill:#e3e3e3;}</style>
    <style
       id="style1399-8-9">.cls-1{fill:#e3e3e3;}</style>
    <style
       id="style1399-2">.cls-1{fill:#e3e3e3;}</style>
    <style
       id="style1399-1-1">.cls-1{fill:#e3e3e3;}</style>
    <style
       id="style1399-5-5">.cls-1{fill:#e3e3e3;}</style>
    <style
       id="style1399-8-99">.cls-1{fill:#e3e3e3;}</style>
    <style
       id="style2">.a{filter:url(#a);}.b{fill:#710132;}.c{fill:#e3e3e3;}</style>
    <filter
       name="AI_FlouGaussien_4"
       id="a">
      <feGaussianBlur
         id="feGaussianBlur4"
         stdDeviation="4" />
    </filter>
  </defs>
  <sodipodi:namedview
     id="base"
     pagecolor="#ffffff"
     bordercolor="#666666"
     borderopacity="1.0"
     inkscape:pageopacity="0.0"
     inkscape:pageshadow="2"
     inkscape:zoom="15.999999"
     inkscape:cx="28.24926"
     inkscape:cy="18.096201"
     inkscape:document-units="mm"
     inkscape:current-layer="layer1"
     showgrid="false"
     units="px"
     inkscape:window-width="1877"
     inkscape:window-height="1161"
     inkscape:window-x="3178"
     inkscape:window-y="165"
     inkscape:window-maximized="0"
     inkscape:document-rotation="0">
    <sodipodi:guide
       position="8.4666666,0"
       orientation="-32,0"
       id="guide854"
       inkscape:locked="false" />
    <sodipodi:guide
       position="8.4666666,8.4666666"
       orientation="0,-32"
       id="guide856"
       inkscape:locked="false" />
    <sodipodi:guide
       position="0,8.4666814"
       orientation="32,0"
       id="guide858"
       inkscape:locked="false" />
  </sodipodi:namedview>
  <metadata
     id="metadata5">
    <rdf:RDF>
      <cc:Work
         rdf:about="">
        <dc:format>image/svg+xml</dc:format>
        <dc:type
           rdf:resource="http://purl.org/dc/dcmitype/StillImage" />
        <dc:title></dc:title>
      </cc:Work>
    </rdf:RDF>
  </metadata>
  <path
     style="display:none;fill:#d588f1;fill-opacity:1;stroke-width:0.0135359"
     d="m 2.8772901,0.76481018 c -0.1800275,0 -0.3246996,0.14467061 -0.3246996,0.32469962 v 0.7548104 c 0.7242067,0.00831 1.4489759,0.2890388 2.0002687,0.8403246 0.4315624,0.4315669 0.6497295,0.9771738 0.7488835,1.5375611 h 0.1490147 c 0.3551187,0 0.6332311,0.2827945 0.670143,0.598599 C 6.1425337,5.0054543 6.078437,5.225106 5.9291286,5.3745295 L 4.9977865,6.3054484 c -0.260859,0.2610896 -0.6942307,0.2608849 -0.9550488,0 L 3.1113956,5.3745295 C 2.9114148,5.1745282 2.8701456,4.8675112 2.9657677,4.6383461 3.0551801,4.424066 3.2811749,4.2603784 3.5402363,4.2382926 3.4813426,4.1121428 3.4786851,3.9619158 3.3755581,3.8589822 3.1492973,3.6330612 2.8525006,3.5175815 2.5525905,3.5088825 v 3.861259 c 0,0.180029 0.1446721,0.325123 0.3246996,0.325123 H 7.425626 c 0.1800274,0 0.3246994,-0.145094 0.3246994,-0.325123 V 2.9306037 H 5.9092317 c -0.1786739,0 -0.3246996,-0.1460221 -0.3246998,-0.3246994 V 0.76481018 Z m 3.1403159,0 V 2.4975296 h 1.7327194 v -0.08255 c 0,-0.085271 -0.033915,-0.1680768 -0.094828,-0.2290259 L 6.3304524,0.85963773 C 6.2695408,0.79872964 6.1867865,0.76481018 6.100157,0.76481018 Z M 2.5284603,2.2807812 C 2.0457631,2.2791412 1.5624713,2.4194272 1.147534,2.7028485 1.086718,2.7443825 1.078964,2.8314706 1.131024,2.8836132 l 0.39836,0.3983602 c 0.038386,0.038421 0.097248,0.044868 0.1439347,0.016933 0.6399771,-0.3834876 1.474103,-0.2878606 2.0125454,0.249769 0.2992425,0.2986914 0.4687983,0.6920477 0.4826044,1.1125307 H 3.5893434 C 3.379338,4.6612147 3.2731901,4.9157008 3.4217019,5.0642239 l 0.9317653,0.9313416 c 0.092063,0.092087 0.2411306,0.091697 0.3331664,-4.333e-4 L 5.6179756,5.0642129 C 5.6737211,5.0084248 5.6934951,4.9376338 5.6857093,4.8711707 5.6727675,4.7604384 5.5824572,4.6611955 5.4511806,4.6611955 H 4.9550296 C 4.9413185,4.0563851 4.7041255,3.4565252 4.2425528,2.9949508 3.7690404,2.5214406 3.149071,2.2831569 2.5284603,2.2807812 Z"
     id="path1112-9"
     inkscape:connector-curvature="0"
     inkscape:label="save" />
  <g
     id="g844"
     transform="matrix(1.2494129,0,0,1.2494129,-1.009881,-1.0813781)"
     inkscape:label="saveIncremental"
     style="display:none">
    <path
       style="fill:#8ad891;fill-opacity:1;stroke-width:0.0108778"
       d="m 3.095408,1.47089 c -0.1446748,0 -0.2611152,0.116102 -0.2611152,0.2607769 v 1.2629583 c 0.066141,-0.00744 0.1324369,-0.012419 0.1988805,-0.012176 0.440247,0.00175 0.8836964,0.1730718 1.2183117,0.5076861 0.2327039,0.2327007 0.3573025,0.5223397 0.4295547,0.8219038 0.1792317,0.04314 0.3587362,0.127838 0.4231281,0.2837767 0.078731,0.1906639 0.041552,0.4482022 -0.1214253,0.6111853 L 4.4879091,5.702849 c -0.2162363,0.2162217 -0.5775799,0.216252 -0.7938305,0 L 3.597006,5.6057764 C 3.5244844,5.8111026 3.3242912,5.9223028 3.108599,5.9240527 3.1070162,6.1261262 3.0120362,6.3228985 2.8342928,6.407048 v 0.3720553 c 0,0.1446749 0.1164404,0.261115 0.2611152,0.261115 h 3.6549351 c 0.1446746,-1e-7 0.2611151,-0.1164402 0.2611151,-0.2611151 V 3.2110936 H 5.5320313 c -0.143587,0 -0.261115,-0.1175267 -0.261115,-0.261115 V 1.47089 Z m 2.5235489,0 V 2.863053 H 7.0114582 V 2.796759 c 0,-0.068528 -0.027152,-0.1350402 -0.076102,-0.1839982 L 5.8702633,1.5469922 C 5.8213132,1.498008 5.7552067,1.47089 5.6855887,1.47089 Z M 3.0318203,3.4187681 C 2.7751152,3.417833 2.5181799,3.4929699 2.2975186,3.6436924 c -0.032373,0.022129 -0.036492,0.068372 -0.00879,0.096058 l 0.2117332,0.211395 c 0.020423,0.020421 0.05203,0.024263 0.076779,0.00947 0.3403466,-0.203935 0.7834785,-0.1529947 1.0698279,0.1329253 0.159131,0.1588451 0.2497092,0.367613 0.2570563,0.5912295 H 3.5959914 c -0.111709,6.6e-6 -0.1679407,0.1354452 -0.088955,0.214439 l 0.4955098,0.4951712 c 0.048964,0.048965 0.1279341,0.048958 0.1768953,0 L 4.6746131,4.8992096 c 0.078985,-0.078987 0.023426,-0.214439 -0.088278,-0.214439 H 4.3225136 C 4.3152143,4.3631204 4.1888168,4.0437222 3.9433556,3.7982644 3.6915419,3.5464515 3.3618617,3.4200772 3.0318203,3.4187681 Z"
       id="path1112"
       sodipodi:nodetypes="ssccccsccscccsssscsscscccsccscccccccccccccsccc" />
    <path
       id="path2133"
       d="M 3.2227275,4.9600612 H 2.6255791 V 4.362912 c 0,-0.073274 -0.059424,-0.1326979 -0.1326996,-0.1326979 H 2.3601797 c -0.073275,0 -0.1326997,0.059424 -0.1326997,0.1326979 V 4.9600612 H 1.6303316 c -0.073275,0 -0.1326997,0.059424 -0.1326997,0.1327022 v 0.1327002 c 0,0.073271 0.059424,0.1326978 0.1326997,0.1326978 H 2.22748 v 0.597147 c 0,0.073278 0.059424,0.1327023 0.1326997,0.1327023 h 0.1326998 c 0.073275,0 0.1326996,-0.059424 0.1326996,-0.1327023 v -0.597147 h 0.5971484 c 0.073275,0 0.1326997,-0.059426 0.1326997,-0.1326978 V 5.0927634 c 0,-0.073278 -0.059424,-0.1327022 -0.1326997,-0.1327022 z"
       inkscape:connector-curvature="0"
       style="fill:#8ad891;fill-opacity:1;stroke-width:0.00414686" />
  </g>
  <path
     style="display:none;fill:#e3e3e3;fill-opacity:1;stroke-width:0.013928"
     d="M 4.4962771,0.73756516 C 4.2406979,0.738262 3.9883408,0.76682729 3.7452967,0.82115037 3.6686932,0.8378012 3.6145609,0.90643301 3.6145609,0.98446291 V 1.6694326 C 3.3053587,1.779466 3.0182691,1.9454164 2.7675645,2.1585129 L 2.1756101,1.8155994 C 2.1073628,1.7765844 2.0223598,1.7892255 1.9694334,1.8477473 1.6254111,2.2196218 1.3623381,2.6681559 1.2077367,3.1653924 c -0.023677,0.075256 0.00847,0.1560415 0.076727,0.195032 l 0.5932404,0.3424849 c -0.025731,0.1388258 -0.038385,0.2794808 -0.042007,0.4200689 h 1.5593993 c 0.035238,-0.5827423 0.5191894,-1.0467434 1.1106108,-1.0467434 0.6142258,0 1.1144689,0.5002447 1.1144689,1.1144689 0,0.6142242 -0.5002431,1.1140402 -1.1144689,1.1140402 -0.018396,0 -0.036256,-0.00168 -0.054437,-0.00257 v 1.4599542 c 0,0.3462607 -0.1830128,0.6574896 -0.4355,0.8478536 0.4241494,0.060112 0.8509532,0.042071 1.2520628,-0.047579 0.076603,-0.016656 0.1307357,-0.084853 0.1307357,-0.1628835 V 6.7145472 C 5.7077704,6.6045054 5.9948602,6.4385636 6.2455646,6.2254668 l 0.5932403,0.3424848 c 0.068248,0.039015 0.1532502,0.026375 0.2061767,-0.032148 0.344022,-0.3718743 0.6070958,-0.8199801 0.7616966,-1.3172165 0.020893,-0.07656 -0.00977,-0.15774 -0.078013,-0.1967467 L 7.135425,4.6793555 c 0.05989,-0.3231379 0.05989,-0.6546017 0,-0.977732 L 7.7286655,3.3591388 C 7.796912,3.3201238 7.8276772,3.2393206 7.8053923,3.1641068 7.6507916,2.6682659 7.3877173,2.2197319 7.0436957,1.8464616 6.9907692,1.789408 6.9043734,1.77538 6.837519,1.8143138 L 6.2438499,2.1567984 C 5.9945387,1.9423059 5.7078771,1.7767762 5.3972824,1.6681467 V 0.98446291 c 0,-0.077948 -0.05456,-0.14660473 -0.1311646,-0.16331254 C 5.0105385,0.76404001 4.7518565,0.73686832 4.4962771,0.73756516 Z M 1.8116932,4.839239 c -0.301484,0 -0.4537644,0.3657848 -0.2400395,0.5795238 L 2.0238709,5.8714086 0.94455059,7.0227405 c -0.0641,0.068398 -0.066283,0.1737396 0,0.2400394 L 1.3834799,7.7017094 c 0.066298,0.066283 0.1737538,0.066283 0.2400395,0 L 2.7028396,6.5503774 3.1554855,7.0025942 C 3.3680784,7.2151599 3.7350092,7.0659162 3.7350092,6.762555 V 5.1787234 c 0,-0.1874989 -0.1519853,-0.3394844 -0.3394843,-0.3394844 z"
     id="path818"
     inkscape:label="settings"
     inkscape:export-xdpi="384"
     inkscape:export-ydpi="384" />
  <g
     inkscape:label="ramses"
     id="layer1"
     transform="matrix(0.74839892,0,0,0.74839892,-29.969337,-192.76288)">
    <circle
       style="display:inline;opacity:1;fill:#e3e4e3;fill-opacity:0;fill-rule:nonzero;stroke:#e3e3e3;stroke-width:0.66809289;stroke-linecap:butt;stroke-linejoin:round;stroke-miterlimit:4;stroke-dasharray:none;stroke-opacity:1;paint-order:markers fill stroke"
       id="circle834"
       cx="45.701122"
       cy="263.22354"
       r="3.7472262" />
    <path
       style="display:inline;fill:#e3e3e3;fill-opacity:1;stroke-width:0.0181958"
       d="m 44.366839,260.09884 c -0.235049,-7.7e-4 -0.480995,0.0222 -0.731222,0.0734 a 3.7472262,3.7472262 0 0 0 -1.814359,3.20601 3.7472262,3.7472262 0 0 0 0.145211,1.02836 c 0.104146,0.0906 0.218532,0.17088 0.348816,0.23203 0.781871,0.36756 1.300719,0.37489 1.55546,0.62218 0.230982,0.22366 0.04885,0.85921 -0.30024,1.28261 a 3.7472262,3.7472262 0 0 0 0.186035,0.11421 l 2.217953,-0.001 c -0.180872,-0.31329 0.517319,-1.00144 0.752409,-0.91519 0.239276,0.0877 0.669668,0.10362 0.774113,-0.11989 0.104442,-0.22343 -0.0956,-0.49499 -0.0956,-0.51883 0,-0.0237 0.127466,-0.47847 0.14366,-0.50229 0.01619,-0.0237 0.09652,-0.0637 0.103354,-0.14366 0.0112,-0.13125 -0.114722,-0.20206 -0.114722,-0.20206 0.04992,-0.0733 0.202683,-0.11207 0.16278,-0.26871 0,0 -0.213533,-0.35313 -0.182417,-0.55966 0.03111,-0.20651 0.326027,-0.23883 0.381888,-0.38241 -0.271299,-0.8299 -0.733669,-0.98147 -0.933276,-1.06918 -0.199607,-0.0877 -0.247726,-0.36672 -0.279569,-0.5023 -0.03184,-0.13554 -0.183613,-0.25544 -0.303341,-0.35915 -0.119728,-0.10377 -0.255268,-0.42283 -0.494543,-0.59841 -0.364318,-0.24432 -0.907546,-0.41158 -1.522905,-0.41496 z m 1.895491,1.70171 c 0,0 0.349065,0.2198 0.29714,0.6196 0,0 -0.296784,0.14868 -0.866614,0 0.123879,-0.34789 0.569474,-0.6196 0.569474,-0.6196 z"
       id="circle15"
       inkscape:connector-curvature="0" />
  </g>
</svg>
