<?xml version="1.0" encoding="UTF-8" standalone="no"?>
<svg
   xmlns:dc="http://purl.org/dc/elements/1.1/"
   xmlns:cc="http://creativecommons.org/ns#"
   xmlns:rdf="http://www.w3.org/1999/02/22-rdf-syntax-ns#"
   xmlns:svg="http://www.w3.org/2000/svg"
   xmlns="http://www.w3.org/2000/svg"
   xmlns:sodipodi="http://sodipodi.sourceforge.net/DTD/sodipodi-0.dtd"
   xmlns:inkscape="http://www.inkscape.org/namespaces/inkscape"
   width="32"
   height="32"
   viewBox="0 0 8.4666666 8.4666666"
   version="1.1"
   id="svg8"
   inkscape:version="0.92.4 (5da689c313, 2019-01-14)"
   sodipodi:docname="maya_icons.svg"
   inkscape:export-filename="D:\DEV SRC\RxOT\Ramses\Ramses-Maya\icons\retrieveversion.png"
   inkscape:export-xdpi="384"
   inkscape:export-ydpi="384">
  <defs
     id="defs2">
    <style
       id="style1399">.cls-1{fill:#e3e3e3;}</style>
    <style
       id="style1399-1">.cls-1{fill:#e3e3e3;}</style>
    <style
       id="style1399-5">.cls-1{fill:#e3e3e3;}</style>
    <style
       id="style1399-8">.cls-1{fill:#e3e3e3;}</style>
    <style
       id="style1399-7">.cls-1{fill:#e3e3e3;}</style>
    <style
       id="style1399-1-5">.cls-1{fill:#e3e3e3;}</style>
    <style
       id="style1399-5-6">.cls-1{fill:#e3e3e3;}</style>
    <style
       id="style1399-8-9">.cls-1{fill:#e3e3e3;}</style>
    <style
       id="style1399-2">.cls-1{fill:#e3e3e3;}</style>
    <style
       id="style1399-1-1">.cls-1{fill:#e3e3e3;}</style>
    <style
       id="style1399-5-5">.cls-1{fill:#e3e3e3;}</style>
    <style
       id="style1399-8-99">.cls-1{fill:#e3e3e3;}</style>
    <style
       id="style2">.a{filter:url(#a);}.b{fill:#710132;}.c{fill:#e3e3e3;}</style>
    <filter
       name="AI_FlouGaussien_4"
       id="a">
      <feGaussianBlur
         id="feGaussianBlur4"
         stdDeviation="4" />
    </filter>
    <style
       id="style1399-3">.cls-1{fill:#e3e3e3;}</style>
    <style
       id="style1399-4">.cls-1{fill:#e3e3e3;}</style>
    <style
       id="style1399-8-7">.cls-1{fill:#e3e3e3;}</style>
    <style
       id="style1399-4-5">.cls-1{fill:#e3e3e3;}</style>
    <style
       id="style1399-9">.cls-1{fill:#e3e3e3;}</style>
    <style
       id="style1399-4-6">.cls-1{fill:#e3e3e3;}</style>
    <style
       id="style1399-8-4">.cls-1{fill:#e3e3e3;}</style>
    <style
       id="style1399-4-5-3">.cls-1{fill:#e3e3e3;}</style>
    <style
       id="style1399-88">.cls-1{fill:#e3e3e3;}</style>
  </defs>
  <sodipodi:namedview
     id="base"
     pagecolor="#ffffff"
     bordercolor="#666666"
     borderopacity="1.0"
     inkscape:pageopacity="0.0"
     inkscape:pageshadow="2"
     inkscape:zoom="15.999999"
     inkscape:cx="12.676678"
     inkscape:cy="18.794929"
     inkscape:document-units="mm"
     inkscape:current-layer="svg8"
     showgrid="false"
     units="px"
     inkscape:window-width="3366"
     inkscape:window-height="1417"
     inkscape:window-x="66"
     inkscape:window-y="-8"
     inkscape:window-maximized="1"
     inkscape:document-rotation="0">
    <sodipodi:guide
       position="8.4666666,0"
       orientation="-32,0"
       id="guide854"
       inkscape:locked="false" />
    <sodipodi:guide
       position="8.4666666,8.4666666"
       orientation="0,-32"
       id="guide856"
       inkscape:locked="false" />
    <sodipodi:guide
       position="0,8.4666814"
       orientation="32,0"
       id="guide858"
       inkscape:locked="false" />
  </sodipodi:namedview>
  <metadata
     id="metadata5">
    <rdf:RDF>
      <cc:Work
         rdf:about="">
        <dc:format>image/svg+xml</dc:format>
        <dc:type
           rdf:resource="http://purl.org/dc/dcmitype/StillImage" />
        <dc:title />
      </cc:Work>
    </rdf:RDF>
  </metadata>
  <path
     style="display:none;fill:#d588f1;fill-opacity:1;stroke-width:0.05115931"
     d="m 8.0625,2.890625 c -0.6804189,0 -1.2265625,0.5461378 -1.2265625,1.2265625 V 27.855469 c 0,0.680424 0.5461436,1.228515 1.2265625,1.228515 h 17.189453 c 0.680419,0 1.228516,-0.548091 1.228516,-1.228515 V 11.076172 h -6.958985 c -0.675303,0 -1.226561,-0.551247 -1.226562,-1.2265626 V 2.890625 Z m 11.869141,0 v 6.5488281 h 6.548828 v -0.3125 c 0,-0.3222841 -0.129153,-0.6348755 -0.359375,-0.8652343 L 21.113281,3.25 C 20.883065,3.0197962 20.571558,2.890625 20.244141,2.890625 Z m -5.951172,10.792969 c 1.812538,0.0069 3.622932,0.701064 5.005859,2.083984 1.348056,1.348061 2.041987,3.100796 2.082031,4.867188 h 1.449219 c 0.383404,0 0.645799,0.289878 0.683594,0.613281 0.02274,0.19411 -0.03446,0.401521 -0.197266,0.564453 l -2.720703,2.71875 c -0.268797,0.269075 -0.703781,0.268947 -0.972656,0 L 16.589844,21.8125 c -0.43374,-0.433773 -0.125055,-1.177711 0.488281,-1.177734 h 1.691406 c -0.04032,-1.228051 -0.534244,-2.377651 -1.408203,-3.25 -1.57256,-1.570186 -4.009807,-1.848519 -5.878906,-0.728516 -0.136351,0.08159 -0.307814,0.06338 -0.419922,-0.04883 L 9.8984375,15.443359 C 9.7463947,15.291074 9.7696467,15.03732 9.9472656,14.916016 11.15912,14.088264 12.570717,13.678794 13.980469,13.683594 Z"
     transform="scale(0.26458333)"
     id="path4547"
     inkscape:label="save"
     inkscape:connector-curvature="0" />
  <g
     id="g844"
     transform="matrix(1.2494129,0,0,1.2494129,-1.7582357,-1.0813781)"
     inkscape:label="saveIncremental"
     style="display:none">
    <path
       style="fill:#8ad891;fill-opacity:1;stroke-width:0.05136704"
       d="m 7.9726562,2.859375 c -0.6831819,0 -1.2343747,0.5472861 -1.234375,1.2304688 V 27.925781 c 0,0.683183 0.5511931,1.232422 1.234375,1.232422 H 25.230469 c 0.683181,0 1.234375,-0.549239 1.234375,-1.232422 V 11.076172 h -6.986328 c -0.678046,0 -1.234375,-0.554371 -1.234375,-1.232422 V 2.859375 Z m 11.9160158,0 v 6.5742188 h 6.576172 V 9.1191406 C 26.464844,8.7955384 26.33662,8.481189 26.105469,8.25 L 21.076172,3.21875 C 20.84502,2.9874373 20.531874,2.859375 20.203125,2.859375 Z m -4.078125,10.728516 c 1.558518,0.0062 3.115575,0.60386 4.304687,1.792968 1.159115,1.159099 1.756547,2.666654 1.791016,4.185547 h 1.246094 c 0.527487,0 0.788998,0.64068 0.416015,1.013672 l -2.33789,2.337891 c -0.231204,0.231189 -0.60472,0.231222 -0.835938,0 l -2.339843,-2.337891 c -0.372987,-0.373024 -0.10759,-1.013641 0.419921,-1.013672 h 1.455079 c -0.03469,-1.055959 -0.461444,-2.040919 -1.212891,-2.791015 -1.352197,-1.350169 -3.445552,-1.591927 -5.052735,-0.628907 -0.116869,0.06986 -0.266839,0.05346 -0.363281,-0.04297 l -0.998047,-1 c -0.130814,-0.130739 -0.111859,-0.348628 0.04102,-0.453125 1.042005,-0.71174 2.254586,-1.066916 3.466797,-1.0625 z m -3.171875,3.832031 h 0.626953 c 0.346021,0 0.626953,0.280939 0.626953,0.626953 v 2.820313 h 2.820313 c 0.346021,-10e-7 0.626953,0.28092 0.626953,0.626953 v 0.626953 c 0,0.346003 -0.280935,0.625 -0.626953,0.625 h -2.820313 v 2.820312 c 0,0.346034 -0.280934,0.626953 -0.626953,0.626953 h -0.626953 c -0.346022,0 -0.626953,-0.28092 -0.626953,-0.626953 V 22.746094 H 9.1933594 c -0.3460218,0 -0.6269532,-0.279001 -0.6269532,-0.625 v -0.626953 c 0,-0.346034 0.2809347,-0.626953 0.6269532,-0.626953 h 2.8183596 v -2.820313 c 0,-0.346013 0.280934,-0.626953 0.626953,-0.626953 z"
       transform="matrix(0.21176613,0,0,0.21176613,1.4072495,0.86550899)"
       id="path4555"
       inkscape:connector-curvature="0" />
  </g>
  <path
     style="display:none;fill:#e3e3e3;fill-opacity:1;stroke-width:0.013928"
     d="M 4.4962771,0.73756516 C 4.2406979,0.738262 3.9883408,0.76682729 3.7452967,0.82115037 3.6686932,0.8378012 3.6145609,0.90643301 3.6145609,0.98446291 V 1.6694326 C 3.3053587,1.779466 3.0182691,1.9454164 2.7675645,2.1585129 L 2.1756101,1.8155994 C 2.1073628,1.7765844 2.0223598,1.7892255 1.9694334,1.8477473 1.6254111,2.2196218 1.3623381,2.6681559 1.2077367,3.1653924 c -0.023677,0.075256 0.00847,0.1560415 0.076727,0.195032 l 0.5932404,0.3424849 c -0.025731,0.1388258 -0.038385,0.2794808 -0.042007,0.4200689 h 1.5593993 c 0.035238,-0.5827423 0.5191894,-1.0467434 1.1106108,-1.0467434 0.6142258,0 1.1144689,0.5002447 1.1144689,1.1144689 0,0.6142242 -0.5002431,1.1140402 -1.1144689,1.1140402 -0.018396,0 -0.036256,-0.00168 -0.054437,-0.00257 v 1.4599542 c 0,0.3462607 -0.1830128,0.6574896 -0.4355,0.8478536 0.4241494,0.060112 0.8509532,0.042071 1.2520628,-0.047579 0.076603,-0.016656 0.1307357,-0.084853 0.1307357,-0.1628835 V 6.7145472 C 5.7077704,6.6045054 5.9948602,6.4385636 6.2455646,6.2254668 l 0.5932403,0.3424848 c 0.068248,0.039015 0.1532502,0.026375 0.2061767,-0.032148 0.344022,-0.3718743 0.6070958,-0.8199801 0.7616966,-1.3172165 0.020893,-0.07656 -0.00977,-0.15774 -0.078013,-0.1967467 L 7.135425,4.6793555 c 0.05989,-0.3231379 0.05989,-0.6546017 0,-0.977732 L 7.7286655,3.3591388 C 7.796912,3.3201238 7.8276772,3.2393206 7.8053923,3.1641068 7.6507916,2.6682659 7.3877173,2.2197319 7.0436957,1.8464616 6.9907692,1.789408 6.9043734,1.77538 6.837519,1.8143138 L 6.2438499,2.1567984 C 5.9945387,1.9423059 5.7078771,1.7767762 5.3972824,1.6681467 V 0.98446291 c 0,-0.077948 -0.05456,-0.14660473 -0.1311646,-0.16331254 C 5.0105385,0.76404001 4.7518565,0.73686832 4.4962771,0.73756516 Z M 1.8116932,4.839239 c -0.301484,0 -0.4537644,0.3657848 -0.2400395,0.5795238 L 2.0238709,5.8714086 0.94455059,7.0227405 c -0.0641,0.068398 -0.066283,0.1737396 0,0.2400394 L 1.3834799,7.7017094 c 0.066298,0.066283 0.1737538,0.066283 0.2400395,0 L 2.7028396,6.5503774 3.1554855,7.0025942 C 3.3680784,7.2151599 3.7350092,7.0659162 3.7350092,6.762555 V 5.1787234 c 0,-0.1874989 -0.1519853,-0.3394844 -0.3394843,-0.3394844 z"
     id="path818"
     inkscape:label="settings"
     inkscape:export-xdpi="384"
     inkscape:export-ydpi="384"
     inkscape:connector-curvature="0" />
  <g
     inkscape:label="ramses"
     id="layer1"
     transform="matrix(0.74839892,0,0,0.74839892,-29.969337,-192.76288)"
     style="display:none">
    <circle
       style="display:inline;opacity:1;fill:#e3e4e3;fill-opacity:0;fill-rule:nonzero;stroke:#e3e3e3;stroke-width:0.66809303;stroke-linecap:butt;stroke-linejoin:round;stroke-miterlimit:4;stroke-dasharray:none;stroke-opacity:1;paint-order:markers fill stroke"
       id="circle834"
       cx="45.701122"
       cy="263.22354"
       r="3.7472262" />
    <path
       style="display:inline;fill:#e3e3e3;fill-opacity:1;stroke-width:0.0181958"
       d="m 44.366839,260.09884 c -0.235049,-7.7e-4 -0.480995,0.0222 -0.731222,0.0734 a 3.7472262,3.7472262 0 0 0 -1.814359,3.20601 3.7472262,3.7472262 0 0 0 0.145211,1.02836 c 0.104146,0.0906 0.218532,0.17088 0.348816,0.23203 0.781871,0.36756 1.300719,0.37489 1.55546,0.62218 0.230982,0.22366 0.04885,0.85921 -0.30024,1.28261 a 3.7472262,3.7472262 0 0 0 0.186035,0.11421 l 2.217953,-0.001 c -0.180872,-0.31329 0.517319,-1.00144 0.752409,-0.91519 0.239276,0.0877 0.669668,0.10362 0.774113,-0.11989 0.104442,-0.22343 -0.0956,-0.49499 -0.0956,-0.51883 0,-0.0237 0.127466,-0.47847 0.14366,-0.50229 0.01619,-0.0237 0.09652,-0.0637 0.103354,-0.14366 0.0112,-0.13125 -0.114722,-0.20206 -0.114722,-0.20206 0.04992,-0.0733 0.202683,-0.11207 0.16278,-0.26871 0,0 -0.213533,-0.35313 -0.182417,-0.55966 0.03111,-0.20651 0.326027,-0.23883 0.381888,-0.38241 -0.271299,-0.8299 -0.733669,-0.98147 -0.933276,-1.06918 -0.199607,-0.0877 -0.247726,-0.36672 -0.279569,-0.5023 -0.03184,-0.13554 -0.183613,-0.25544 -0.303341,-0.35915 -0.119728,-0.10377 -0.255268,-0.42283 -0.494543,-0.59841 -0.364318,-0.24432 -0.907546,-0.41158 -1.522905,-0.41496 z m 1.895491,1.70171 c 0,0 0.349065,0.2198 0.29714,0.6196 0,0 -0.296784,0.14868 -0.866614,0 0.123879,-0.34789 0.569474,-0.6196 0.569474,-0.6196 z"
       id="circle15"
       inkscape:connector-curvature="0" />
  </g>
  <path
     style="display:none;fill:#8ad891;fill-opacity:1;stroke-width:0.05136703"
     d="m 7.9726562,2.859375 c -0.6831821,0 -1.2343746,0.547286 -1.234375,1.2304688 V 27.925781 c 0,0.683183 0.5511929,1.232422 1.234375,1.232422 H 25.230469 c 0.683181,0 1.234375,-0.549239 1.234375,-1.232422 V 11.076172 h -6.986328 c -0.678046,0 -1.234375,-0.554371 -1.234375,-1.232422 V 2.859375 Z m 11.9160158,0 v 6.5742188 h 6.576172 V 9.1191406 C 26.464844,8.7955375 26.336621,8.4811892 26.105469,8.25 L 21.076172,3.21875 C 20.84502,2.9874354 20.531874,2.859375 20.203125,2.859375 Z m -3.105469,11.830078 c 3.17246,-0.0057 5.761747,2.577543 5.761719,5.75 -5e-6,0.648235 -0.112813,1.268252 -0.310547,1.849609 -0.30686,-0.411912 -0.791371,-0.685546 -1.335937,-0.685546 h -0.386719 c 0.112554,-0.358802 0.174461,-0.739342 0.177734,-1.13086 0.01853,-2.213734 -1.787074,-3.946216 -3.929687,-3.927734 -0.983885,0.0085 -1.909297,0.37869 -2.625,1.048828 l 0.966796,0.96875 c 0.350594,0.350617 0.103248,0.949219 -0.392578,0.949219 h -3.109375 c -0.307371,0 -0.55664,-0.249271 -0.55664,-0.556641 v -3.109375 c 0,-0.495821 0.598601,-0.743195 0.949219,-0.392578 l 0.828124,0.828125 c 1.030101,-0.984418 2.426182,-1.589002 3.962891,-1.591797 z m -4.119141,7.904297 h 8.232422 c 0.378815,0 0.685547,0.306735 0.685547,0.685547 v 0.685547 c 0,0.378811 -0.306733,0.685547 -0.685547,0.685547 h -8.232422 c -0.378814,0 -0.685546,-0.306735 -0.685546,-0.685547 v -0.685547 c 0,-0.378813 0.306731,-0.685547 0.685546,-0.685547 z"
     transform="scale(0.26458333)"
     id="path4555-4"
     inkscape:label="retrieve"
     inkscape:connector-curvature="0" />
  <path
     style="display:none;fill:#8ad891;fill-opacity:1;stroke-width:0.05136703"
     d="m 7.9726562,2.859375 c -0.683182,0 -1.2343746,0.547286 -1.234375,1.2304688 V 27.925781 c 0,0.683183 0.551193,1.232422 1.234375,1.232422 H 25.230469 c 0.683181,0 1.234375,-0.549239 1.234375,-1.232422 V 11.076172 h -6.986328 c -0.678046,0 -1.234375,-0.554371 -1.234375,-1.232422 V 2.859375 Z m 11.9160158,0 v 6.5742188 h 6.576172 V 9.1191406 C 26.464844,8.7955375 26.336621,8.4811892 26.105469,8.25 L 21.076172,3.21875 C 20.84502,2.9874354 20.531874,2.859375 20.203125,2.859375 Z M 16.5,12.923828 c 1.310052,0 2.373047,1.062996 2.373047,2.373047 0,0.410904 -0.11475,0.790175 -0.298828,1.126953 l 1.279297,2.216797 c -0.569534,0.572499 -1.269366,0.987596 -2.041016,1.208984 l -1.261719,-2.185547 c -0.01703,4.54e-4 -0.03347,0.0039 -0.05078,0.0039 -0.0173,0 -0.03347,-0.0034 -0.05078,-0.0039 l -1.664063,2.882813 c 0.548037,0.179879 1.123567,0.285156 1.714844,0.285156 1.884033,0 3.632666,-0.961511 4.648438,-2.53125 0.114894,-0.177426 0.340571,-0.243163 0.52539,-0.140625 l 0.69336,0.384766 c 0.196186,0.108718 0.270474,0.363219 0.15039,0.552734 -1.300167,2.054028 -3.570189,3.314453 -6.017578,3.314453 -0.874191,0 -1.726113,-0.166316 -2.521484,-0.46875 l -1.75,3.03125 -1.332032,0.56836 c -0.242392,0.103532 -0.517193,-0.05474 -0.548828,-0.316407 l -0.173828,-1.439453 1.761719,-3.048828 c -0.526046,-0.44006 -0.998099,-0.949091 -1.382813,-1.533203 -0.123295,-0.187043 -0.05529,-0.442511 0.138672,-0.554687 l 0.685547,-0.398438 c 0.183091,-0.106 0.410943,-0.04262 0.529297,0.132813 0.240168,0.356051 0.521938,0.676023 0.832031,0.96289 l 1.6875,-2.923828 c -0.183832,-0.336778 -0.296875,-0.716049 -0.296875,-1.126953 0,-1.310051 1.061043,-2.373047 2.371094,-2.373047 z m 0,1.582031 c -0.436602,0 -0.791016,0.354414 -0.791016,0.791016 0,0.436602 0.354415,0.791016 0.791016,0.791016 0.436603,0 0.791016,-0.354414 0.791016,-0.791016 0,-0.436602 -0.354414,-0.791016 -0.791016,-0.791016 z m 4.966797,6.929688 1.359375,2.351562 -0.173828,1.439453 c -0.03163,0.261665 -0.306436,0.419936 -0.548828,0.316407 l -1.332032,-0.56836 -1.34375,-2.328125 c 0.739035,-0.293291 1.420112,-0.70861 2.039063,-1.210937 z"
     transform="scale(0.26458333)"
     id="path4594"
     inkscape:label="publishTemplate"
     inkscape:connector-curvature="0" />
  <path
     style="display:inline;fill:#d588f1;fill-opacity:1;stroke-width:0.05136703"
     d="M 7.9726562 2.859375 C 7.2894742 2.859375 6.7382816 3.406661 6.7382812 4.0898438 L 6.7382812 27.925781 C 6.7382812 28.608964 7.2894742 29.158203 7.9726562 29.158203 L 25.230469 29.158203 C 25.91365 29.158203 26.464844 28.608964 26.464844 27.925781 L 26.464844 11.076172 L 19.478516 11.076172 C 18.80047 11.076172 18.244141 10.521801 18.244141 9.84375 L 18.244141 2.859375 L 7.9726562 2.859375 z M 19.888672 2.859375 L 19.888672 9.4335938 L 26.464844 9.4335938 L 26.464844 9.1191406 C 26.464844 8.7955375 26.336621 8.4811892 26.105469 8.25 L 21.076172 3.21875 C 20.84502 2.9874354 20.531874 2.859375 20.203125 2.859375 L 19.888672 2.859375 z M 12.332031 14.910156 L 20.482422 14.910156 C 21.231583 14.910156 21.839844 15.520367 21.839844 16.269531 L 21.839844 22.380859 C 21.839844 23.130011 21.231583 23.738281 20.482422 23.738281 L 17.425781 23.738281 L 14.775391 25.728516 C 14.607732 25.851611 14.369141 25.729472 14.369141 25.521484 L 14.369141 23.738281 L 12.332031 23.738281 C 11.58287 23.738281 10.974609 23.130011 10.974609 22.380859 L 10.974609 16.269531 C 10.974609 15.520367 11.58287 14.910156 12.332031 14.910156 z "
     transform="scale(0.26458333)"
     id="path847"
     inkscape:label="savecomment" />
</svg>
