<?xml version="1.0" encoding="UTF-8" standalone="no"?>
<svg
   width="32"
   height="32"
   viewBox="0 0 8.4666666 8.4666666"
   version="1.1"
   id="svg8"
   inkscape:version="1.1 (c68e22c387, 2021-05-23)"
   sodipodi:docname="maya_icons.svg"
   inkscape:export-filename="D:\RxLab\Src\RxOT\Ramses\Ramses-Maya\icons\ramreplace.png"
   inkscape:export-xdpi="96.000008"
   inkscape:export-ydpi="96.000008"
   inkscape:label="savestatus"
   xmlns:inkscape="http://www.inkscape.org/namespaces/inkscape"
   xmlns:sodipodi="http://sodipodi.sourceforge.net/DTD/sodipodi-0.dtd"
   xmlns="http://www.w3.org/2000/svg"
   xmlns:svg="http://www.w3.org/2000/svg"
   xmlns:rdf="http://www.w3.org/1999/02/22-rdf-syntax-ns#"
   xmlns:cc="http://creativecommons.org/ns#"
   xmlns:dc="http://purl.org/dc/elements/1.1/">
  <defs
     id="defs2">
    <style
       id="style1399">.cls-1{fill:#e3e3e3;}</style>
    <style
       id="style1399-1">.cls-1{fill:#e3e3e3;}</style>
    <style
       id="style1399-5">.cls-1{fill:#e3e3e3;}</style>
    <style
       id="style1399-8">.cls-1{fill:#e3e3e3;}</style>
    <style
       id="style1399-7">.cls-1{fill:#e3e3e3;}</style>
    <style
       id="style1399-1-5">.cls-1{fill:#e3e3e3;}</style>
    <style
       id="style1399-5-6">.cls-1{fill:#e3e3e3;}</style>
    <style
       id="style1399-8-9">.cls-1{fill:#e3e3e3;}</style>
    <style
       id="style1399-2">.cls-1{fill:#e3e3e3;}</style>
    <style
       id="style1399-1-1">.cls-1{fill:#e3e3e3;}</style>
    <style
       id="style1399-5-5">.cls-1{fill:#e3e3e3;}</style>
    <style
       id="style1399-8-99">.cls-1{fill:#e3e3e3;}</style>
    <style
       id="style2">.a{filter:url(#a);}.b{fill:#710132;}.c{fill:#e3e3e3;}</style>
    <filter
       name="AI_FlouGaussien_4"
       id="a">
      <feGaussianBlur
         id="feGaussianBlur4"
         stdDeviation="4" />
    </filter>
    <style
       id="style1399-3">.cls-1{fill:#e3e3e3;}</style>
    <style
       id="style1399-4">.cls-1{fill:#e3e3e3;}</style>
    <style
       id="style1399-8-7">.cls-1{fill:#e3e3e3;}</style>
    <style
       id="style1399-4-5">.cls-1{fill:#e3e3e3;}</style>
    <style
       id="style1399-9">.cls-1{fill:#e3e3e3;}</style>
    <style
       id="style1399-4-6">.cls-1{fill:#e3e3e3;}</style>
    <style
       id="style1399-8-4">.cls-1{fill:#e3e3e3;}</style>
    <style
       id="style1399-4-5-3">.cls-1{fill:#e3e3e3;}</style>
    <style
       id="style1399-88">.cls-1{fill:#e3e3e3;}</style>
    <style
       id="style1399-19">.cls-1{fill:#e3e3e3;}</style>
    <style
       id="style857">.cls-1{fill:#e52120;}.cls-1,.cls-2,.cls-3,.cls-4,.cls-5{stroke:#000;stroke-miterlimit:10;stroke-width:1.2px;}.cls-2{fill:#6dbc88;}.cls-3{fill:#701034;}.cls-4{fill:#51aae0;}.cls-5{fill:none;}</style>
    <style
       id="style857-2">.cls-1{fill:#e52120;}.cls-1,.cls-2,.cls-3,.cls-4,.cls-5{stroke:#000;stroke-miterlimit:10;stroke-width:1.2px;}.cls-2{fill:#6dbc88;}.cls-3{fill:#701034;}.cls-4{fill:#51aae0;}.cls-5{fill:none;}</style>
    <style
       id="style1399-99">.cls-1{fill:#e3e3e3;}</style>
    <style
       id="style1399-87">.cls-1{fill:#e3e3e3;}</style>
    <style
       id="style1399-4-3">.cls-1{fill:#e3e3e3;}</style>
    <style
       id="style1399-8-2">.cls-1{fill:#e3e3e3;}</style>
    <style
       id="style1399-4-5-2">.cls-1{fill:#e3e3e3;}</style>
    <style
       id="style1399-0">.cls-1{fill:#e3e3e3;}</style>
    <style
       id="style854">.cls-1{fill:#e3e3e3;}</style>
    <style
       id="style1399-84">.cls-1{fill:#e3e3e3;}</style>
    <style
       id="style1399-4-8">.cls-1{fill:#e3e3e3;}</style>
    <style
       id="style1399-8-10">.cls-1{fill:#e3e3e3;}</style>
    <style
       id="style1399-4-5-3-2">.cls-1{fill:#e3e3e3;}</style>
    <style
       id="style1399-0-0">.cls-1{fill:#e3e3e3;}</style>
    <style
       id="style1399-5-0">.cls-1{fill:#e3e3e3;}</style>
    <style
       id="style1399-4-6-9">.cls-1{fill:#e3e3e3;}</style>
    <style
       id="style1399-8-1">.cls-1{fill:#e3e3e3;}</style>
    <style
       id="style1399-4-5-1">.cls-1{fill:#e3e3e3;}</style>
    <style
       id="style1399-0-5">.cls-1{fill:#e3e3e3;}</style>
    <linearGradient
       id="Neutral__dark_"
       inkscape:swatch="solid">
      <stop
         style="stop-color:#232323;stop-opacity:1;"
         offset="0"
         id="stop832" />
    </linearGradient>
    <linearGradient
       id="linearGradient1363"
       inkscape:swatch="solid">
      <stop
         style="stop-color:#84b330;stop-opacity:1;"
         offset="0"
         id="stop1361" />
    </linearGradient>
    <style
       id="style1399-79">.cls-1{fill:#e3e3e3;}</style>
    <style
       id="style857-7">.cls-1{fill:#e52120;}.cls-1,.cls-2,.cls-3,.cls-4,.cls-5{stroke:#000;stroke-miterlimit:10;stroke-width:1.2px;}.cls-2{fill:#6dbc88;}.cls-3{fill:#701034;}.cls-4{fill:#51aae0;}.cls-5{fill:none;}</style>
    <style
       id="style857-2-8">.cls-1{fill:#e52120;}.cls-1,.cls-2,.cls-3,.cls-4,.cls-5{stroke:#000;stroke-miterlimit:10;stroke-width:1.2px;}.cls-2{fill:#6dbc88;}.cls-3{fill:#701034;}.cls-4{fill:#51aae0;}.cls-5{fill:none;}</style>
    <style
       id="style1399-7-9">.cls-1{fill:#e3e3e3;}</style>
    <style
       id="style1399-2-59">.cls-1{fill:#e3e3e3;}</style>
    <style
       id="style1399-8-92">.cls-1{fill:#e3e3e3;}</style>
    <style
       id="style1399-9-5">.cls-1{fill:#e3e3e3;}</style>
    <style
       id="style1399-5-3">.cls-1{fill:#e3e3e3;}</style>
    <style
       id="style857-6">.cls-1{fill:#e52120;}.cls-1,.cls-2,.cls-3,.cls-4,.cls-5{stroke:#000;stroke-miterlimit:10;stroke-width:1.2px;}.cls-2{fill:#6dbc88;}.cls-3{fill:#701034;}.cls-4{fill:#51aae0;}.cls-5{fill:none;}</style>
    <style
       id="style857-2-1">.cls-1{fill:#e52120;}.cls-1,.cls-2,.cls-3,.cls-4,.cls-5{stroke:#000;stroke-miterlimit:10;stroke-width:1.2px;}.cls-2{fill:#6dbc88;}.cls-3{fill:#701034;}.cls-4{fill:#51aae0;}.cls-5{fill:none;}</style>
    <style
       id="style1399-7-1">.cls-1{fill:#e3e3e3;}</style>
    <style
       id="style1399-2-5">.cls-1{fill:#e3e3e3;}</style>
    <style
       id="style1399-8-9-1">.cls-1{fill:#e3e3e3;}</style>
    <style
       id="style1399-9-8">.cls-1{fill:#e3e3e3;}</style>
    <style
       id="style1399-96">.cls-1{fill:#e3e3e3;}</style>
    <style
       id="style857-21">.cls-1{fill:#e52120;}.cls-1,.cls-2,.cls-3,.cls-4,.cls-5{stroke:#000;stroke-miterlimit:10;stroke-width:1.2px;}.cls-2{fill:#6dbc88;}.cls-3{fill:#701034;}.cls-4{fill:#51aae0;}.cls-5{fill:none;}</style>
    <style
       id="style857-2-7">.cls-1{fill:#e52120;}.cls-1,.cls-2,.cls-3,.cls-4,.cls-5{stroke:#000;stroke-miterlimit:10;stroke-width:1.2px;}.cls-2{fill:#6dbc88;}.cls-3{fill:#701034;}.cls-4{fill:#51aae0;}.cls-5{fill:none;}</style>
    <style
       id="style1399-7-8">.cls-1{fill:#e3e3e3;}</style>
    <style
       id="style1399-2-57">.cls-1{fill:#e3e3e3;}</style>
    <style
       id="style1399-8-4-1">.cls-1{fill:#e3e3e3;}</style>
    <style
       id="style1399-9-1">.cls-1{fill:#e3e3e3;}</style>
    <style
       id="style1399-5-8">.cls-1{fill:#e3e3e3;}</style>
    <style
       id="style857-6-5">.cls-1{fill:#e52120;}.cls-1,.cls-2,.cls-3,.cls-4,.cls-5{stroke:#000;stroke-miterlimit:10;stroke-width:1.2px;}.cls-2{fill:#6dbc88;}.cls-3{fill:#701034;}.cls-4{fill:#51aae0;}.cls-5{fill:none;}</style>
    <style
       id="style857-2-1-9">.cls-1{fill:#e52120;}.cls-1,.cls-2,.cls-3,.cls-4,.cls-5{stroke:#000;stroke-miterlimit:10;stroke-width:1.2px;}.cls-2{fill:#6dbc88;}.cls-3{fill:#701034;}.cls-4{fill:#51aae0;}.cls-5{fill:none;}</style>
    <style
       id="style1399-7-1-7">.cls-1{fill:#e3e3e3;}</style>
    <style
       id="style1399-2-5-5">.cls-1{fill:#e3e3e3;}</style>
    <style
       id="style1399-8-9-3">.cls-1{fill:#e3e3e3;}</style>
    <style
       id="style1399-9-8-8">.cls-1{fill:#e3e3e3;}</style>
    <style
       id="style1399-85">.cls-1{fill:#e3e3e3;}</style>
    <style
       id="style1399-1-4">.cls-1{fill:#e3e3e3;}</style>
    <style
       id="style1399-5-6-3">.cls-1{fill:#e3e3e3;}</style>
    <style
       id="style1399-8-1-1">.cls-1{fill:#e3e3e3;}</style>
    <style
       id="style1399-4-60">.cls-1{fill:#e3e3e3;}</style>
    <style
       id="style857-4">.cls-1{fill:#e52120;}.cls-1,.cls-2,.cls-3,.cls-4,.cls-5{stroke:#000;stroke-miterlimit:10;stroke-width:1.2px;}.cls-2{fill:#6dbc88;}.cls-3{fill:#701034;}.cls-4{fill:#51aae0;}.cls-5{fill:none;}</style>
    <style
       id="style857-2-4">.cls-1{fill:#e52120;}.cls-1,.cls-2,.cls-3,.cls-4,.cls-5{stroke:#000;stroke-miterlimit:10;stroke-width:1.2px;}.cls-2{fill:#6dbc88;}.cls-3{fill:#701034;}.cls-4{fill:#51aae0;}.cls-5{fill:none;}</style>
    <style
       id="style1399-7-4">.cls-1{fill:#e3e3e3;}</style>
    <style
       id="style1399-2-7">.cls-1{fill:#e3e3e3;}</style>
    <style
       id="style1399-8-6">.cls-1{fill:#e3e3e3;}</style>
    <style
       id="style1399-9-3">.cls-1{fill:#e3e3e3;}</style>
    <style
       id="style1399-5-1">.cls-1{fill:#e3e3e3;}</style>
    <style
       id="style857-6-7">.cls-1{fill:#e52120;}.cls-1,.cls-2,.cls-3,.cls-4,.cls-5{stroke:#000;stroke-miterlimit:10;stroke-width:1.2px;}.cls-2{fill:#6dbc88;}.cls-3{fill:#701034;}.cls-4{fill:#51aae0;}.cls-5{fill:none;}</style>
    <style
       id="style857-2-1-5">.cls-1{fill:#e52120;}.cls-1,.cls-2,.cls-3,.cls-4,.cls-5{stroke:#000;stroke-miterlimit:10;stroke-width:1.2px;}.cls-2{fill:#6dbc88;}.cls-3{fill:#701034;}.cls-4{fill:#51aae0;}.cls-5{fill:none;}</style>
    <style
       id="style1399-7-1-9">.cls-1{fill:#e3e3e3;}</style>
    <style
       id="style1399-2-5-6">.cls-1{fill:#e3e3e3;}</style>
    <style
       id="style1399-8-9-2">.cls-1{fill:#e3e3e3;}</style>
    <style
       id="style1399-9-8-1">.cls-1{fill:#e3e3e3;}</style>
    <style
       id="style1399-88-6">.cls-1{fill:#e3e3e3;}</style>
    <style
       id="style1399-20">.cls-1{fill:#e3e3e3;}</style>
    <style
       id="style1399-4-609">.cls-1{fill:#e3e3e3;}</style>
    <style
       id="style1399-8-18">.cls-1{fill:#e3e3e3;}</style>
    <style
       id="style1399-4-5-23">.cls-1{fill:#e3e3e3;}</style>
    <style
       id="style1399-9-0">.cls-1{fill:#e3e3e3;}</style>
    <style
       id="style1399-4-6-2">.cls-1{fill:#e3e3e3;}</style>
    <style
       id="style1399-8-4-6">.cls-1{fill:#e3e3e3;}</style>
    <style
       id="style1399-4-5-3-8">.cls-1{fill:#e3e3e3;}</style>
    <style
       id="style1399-88-5">.cls-1{fill:#e3e3e3;}</style>
    <style
       id="style857-60">.cls-1{fill:#e52120;}.cls-1,.cls-2,.cls-3,.cls-4,.cls-5{stroke:#000;stroke-miterlimit:10;stroke-width:1.2px;}.cls-2{fill:#6dbc88;}.cls-3{fill:#701034;}.cls-4{fill:#51aae0;}.cls-5{fill:none;}</style>
    <style
       id="style857-2-48">.cls-1{fill:#e52120;}.cls-1,.cls-2,.cls-3,.cls-4,.cls-5{stroke:#000;stroke-miterlimit:10;stroke-width:1.2px;}.cls-2{fill:#6dbc88;}.cls-3{fill:#701034;}.cls-4{fill:#51aae0;}.cls-5{fill:none;}</style>
  </defs>
  <sodipodi:namedview
     id="base"
     pagecolor="#ffffff"
     bordercolor="#666666"
     borderopacity="1.0"
     inkscape:pageopacity="0.0"
     inkscape:pageshadow="2"
     inkscape:zoom="11.313708"
     inkscape:cx="22.848389"
     inkscape:cy="14.539884"
     inkscape:document-units="mm"
     inkscape:current-layer="svg8"
     showgrid="false"
     units="px"
     inkscape:window-width="1920"
     inkscape:window-height="1027"
     inkscape:window-x="-8"
     inkscape:window-y="-8"
     inkscape:window-maximized="1"
     inkscape:document-rotation="0"
     inkscape:pagecheckerboard="1"
     inkscape:snap-global="true"
     inkscape:snap-bbox="true"
     inkscape:bbox-paths="true"
     inkscape:snap-bbox-edge-midpoints="true"
     inkscape:snap-bbox-midpoints="true"
     inkscape:bbox-nodes="true"
     inkscape:object-nodes="false"
     inkscape:snap-to-guides="true"
     inkscape:snap-grids="false"
     showguides="true"
     inkscape:guide-bbox="true">
    <sodipodi:guide
       position="7.1437504,9.8391927"
       orientation="-32,0"
       id="guide854"
       inkscape:locked="false" />
    <sodipodi:guide
       position="8.8800786,7.1602863"
       orientation="0,-32"
       id="guide856"
       inkscape:locked="false" />
    <sodipodi:guide
       position="1.3229167,9.9053386"
       orientation="32,0"
       id="guide858"
       inkscape:locked="false" />
    <sodipodi:guide
       position="6.6476566,1.3229162"
       orientation="0,-1"
       id="guide1546" />
  </sodipodi:namedview>
  <metadata
     id="metadata5">
    <rdf:RDF>
      <cc:Work
         rdf:about="">
        <dc:format>image/svg+xml</dc:format>
        <dc:type
           rdf:resource="http://purl.org/dc/dcmitype/StillImage" />
        <dc:title />
      </cc:Work>
    </rdf:RDF>
  </metadata>
  <path
     style="display:none;fill:#e3e3e3;fill-opacity:1;stroke-width:0.013928"
     d="M 4.4962771,0.73756516 C 4.2406979,0.738262 3.9883408,0.76682729 3.7452967,0.82115037 3.6686932,0.8378012 3.6145609,0.90643301 3.6145609,0.98446291 V 1.6694326 C 3.3053587,1.779466 3.0182691,1.9454164 2.7675645,2.1585129 L 2.1756101,1.8155994 C 2.1073628,1.7765844 2.0223598,1.7892255 1.9694334,1.8477473 1.6254111,2.2196218 1.3623381,2.6681559 1.2077367,3.1653924 c -0.023677,0.075256 0.00847,0.1560415 0.076727,0.195032 l 0.5932404,0.3424849 c -0.025731,0.1388258 -0.038385,0.2794808 -0.042007,0.4200689 h 1.5593993 c 0.035238,-0.5827423 0.5191894,-1.0467434 1.1106108,-1.0467434 0.6142258,0 1.1144689,0.5002447 1.1144689,1.1144689 0,0.6142242 -0.5002431,1.1140402 -1.1144689,1.1140402 -0.018396,0 -0.036256,-0.00168 -0.054437,-0.00257 v 1.4599542 c 0,0.3462607 -0.1830128,0.6574896 -0.4355,0.8478536 0.4241494,0.060112 0.8509532,0.042071 1.2520628,-0.047579 0.076603,-0.016656 0.1307357,-0.084853 0.1307357,-0.1628835 V 6.7145472 C 5.7077704,6.6045054 5.9948602,6.4385636 6.2455646,6.2254668 l 0.5932403,0.3424848 c 0.068248,0.039015 0.1532502,0.026375 0.2061767,-0.032148 0.344022,-0.3718743 0.6070958,-0.8199801 0.7616966,-1.3172165 0.020893,-0.07656 -0.00977,-0.15774 -0.078013,-0.1967467 L 7.135425,4.6793555 c 0.05989,-0.3231379 0.05989,-0.6546017 0,-0.977732 L 7.7286655,3.3591388 C 7.796912,3.3201238 7.8276772,3.2393206 7.8053923,3.1641068 7.6507916,2.6682659 7.3877173,2.2197319 7.0436957,1.8464616 6.9907692,1.789408 6.9043734,1.77538 6.837519,1.8143138 L 6.2438499,2.1567984 C 5.9945387,1.9423059 5.7078771,1.7767762 5.3972824,1.6681467 V 0.98446291 c 0,-0.077948 -0.05456,-0.14660473 -0.1311646,-0.16331254 C 5.0105385,0.76404001 4.7518565,0.73686832 4.4962771,0.73756516 Z M 1.8116932,4.839239 c -0.301484,0 -0.4537644,0.3657848 -0.2400395,0.5795238 L 2.0238709,5.8714086 0.94455059,7.0227405 c -0.0641,0.068398 -0.066283,0.1737396 0,0.2400394 L 1.3834799,7.7017094 c 0.066298,0.066283 0.1737538,0.066283 0.2400395,0 L 2.7028396,6.5503774 3.1554855,7.0025942 C 3.3680784,7.2151599 3.7350092,7.0659162 3.7350092,6.762555 V 5.1787234 c 0,-0.1874989 -0.1519853,-0.3394844 -0.3394843,-0.3394844 z"
     id="path818"
     inkscape:label="settings"
     inkscape:export-xdpi="384"
     inkscape:export-ydpi="384"
     inkscape:connector-curvature="0" />
  <g
     inkscape:label="ramses"
     id="layer1"
     transform="matrix(0.74839892,0,0,0.74839892,-29.969337,-192.76288)"
     style="display:none">
    <circle
       style="display:inline;opacity:1;fill:#e3e4e3;fill-opacity:0;fill-rule:nonzero;stroke:#e3e3e3;stroke-width:0.668093;stroke-linecap:butt;stroke-linejoin:round;stroke-miterlimit:4;stroke-dasharray:none;stroke-opacity:1;paint-order:markers fill stroke"
       id="circle834"
       cx="45.701122"
       cy="263.22354"
       r="3.7472262" />
    <path
       style="display:inline;fill:#e3e3e3;fill-opacity:1;stroke-width:0.0181958"
       d="m 44.366839,260.09884 c -0.235049,-7.7e-4 -0.480995,0.0222 -0.731222,0.0734 a 3.7472262,3.7472262 0 0 0 -1.814359,3.20601 3.7472262,3.7472262 0 0 0 0.145211,1.02836 c 0.104146,0.0906 0.218532,0.17088 0.348816,0.23203 0.781871,0.36756 1.300719,0.37489 1.55546,0.62218 0.230982,0.22366 0.04885,0.85921 -0.30024,1.28261 a 3.7472262,3.7472262 0 0 0 0.186035,0.11421 l 2.217953,-0.001 c -0.180872,-0.31329 0.517319,-1.00144 0.752409,-0.91519 0.239276,0.0877 0.669668,0.10362 0.774113,-0.11989 0.104442,-0.22343 -0.0956,-0.49499 -0.0956,-0.51883 0,-0.0237 0.127466,-0.47847 0.14366,-0.50229 0.01619,-0.0237 0.09652,-0.0637 0.103354,-0.14366 0.0112,-0.13125 -0.114722,-0.20206 -0.114722,-0.20206 0.04992,-0.0733 0.202683,-0.11207 0.16278,-0.26871 0,0 -0.213533,-0.35313 -0.182417,-0.55966 0.03111,-0.20651 0.326027,-0.23883 0.381888,-0.38241 -0.271299,-0.8299 -0.733669,-0.98147 -0.933276,-1.06918 -0.199607,-0.0877 -0.247726,-0.36672 -0.279569,-0.5023 -0.03184,-0.13554 -0.183613,-0.25544 -0.303341,-0.35915 -0.119728,-0.10377 -0.255268,-0.42283 -0.494543,-0.59841 -0.364318,-0.24432 -0.907546,-0.41158 -1.522905,-0.41496 z m 1.895491,1.70171 c 0,0 0.349065,0.2198 0.29714,0.6196 0,0 -0.296784,0.14868 -0.866614,0 0.123879,-0.34789 0.569474,-0.6196 0.569474,-0.6196 z"
       id="circle15"
       inkscape:connector-curvature="0" />
  </g>
  <path
     style="display:none;fill:#8ad891;fill-opacity:1;stroke-width:0.0270584"
     d="m 4.346674,1.6175389 c 1.6711424,-0.003 3.0350896,1.3577608 3.035075,3.0289017 C 7.3817461,4.9879085 7.322323,5.3145122 7.2181634,5.6207508 7.0565201,5.40377 6.8012964,5.2596288 6.5144377,5.2596288 H 6.3107276 C 6.3700175,5.0706243 6.4026272,4.870169 6.4043521,4.6639309 6.4141126,3.497812 5.4629829,2.5852003 4.3343282,2.5949361 3.8160515,2.5994136 3.3285764,2.7944169 2.9515687,3.1474226 L 3.4608435,3.6577265 C 3.6455243,3.8424195 3.515231,4.1577423 3.254047,4.1577423 H 1.6161353 c -0.1619123,0 -0.2932186,-0.1313073 -0.2932186,-0.2932192 V 2.2266115 c 0,-0.2611814 0.3153225,-0.3914894 0.5000158,-0.2067965 L 2.2591596,2.4560427 C 2.8017815,1.9374853 3.5371886,1.6190113 4.346674,1.6175389 Z M 2.1768526,5.78125 h 4.3365559 c 0.1995466,0 0.3611226,0.1615775 0.3611226,0.3611224 V 6.503495 c 0,0.1995446 -0.1615764,0.3611225 -0.3611226,0.3611225 H 2.1768526 c -0.1995461,0 -0.361122,-0.1615774 -0.361122,-0.3611225 V 6.1423724 c 0,-0.1995455 0.1615755,-0.3611224 0.361122,-0.3611224 z"
     id="path4555-4"
     inkscape:label="retrieve"
     inkscape:connector-curvature="0"
     sodipodi:nodetypes="cscscccccsssssccsssssssss" />
  <path
     id="path1415"
     style="display:none;fill:#8ad891;fill-opacity:1;stroke-width:0.0102305"
     inkscape:label="savestatus"
     d="m 3.8261233,0.901237 c -0.1183315,0 -0.2363118,0.0451091 -0.3265953,0.1353923 L 1.458309,3.0778483 C 1.3715929,3.1645461 1.3229352,3.2818216 1.3229167,3.4044436 v 1.9662881 c 0,0.2553647 0.2071388,0.4625041 0.4625041,0.4625041 H 3.7517092 C 3.8743304,5.833217 3.9916064,5.7845599 4.078304,5.6978435 L 6.1195232,3.6566243 c 0.1805662,-0.1805665 0.1805668,-0.4731409 0,-0.6537068 L 4.1532351,1.0366293 C 4.0629521,0.94634632 3.9444545,0.901237 3.8261233,0.901237 Z M 2.4019206,4.2917278 c 0.2553653,0 0.4619874,0.2071391 0.4619874,0.4625041 0,0.2553652 -0.2066221,0.4625041 -0.4619874,0.4625041 -0.2553652,0 -0.4625041,-0.2071389 -0.4625041,-0.4625041 0,-0.255365 0.2071389,-0.4625041 0.4625041,-0.4625041 z m 5.1722942,0.7219199 c -0.043782,0 -0.08752,0.016722 -0.1209227,0.050126 L 5.8487388,6.6688437 5.0999473,5.9195355 c -0.066805,-0.066809 -0.1755576,-0.066809 -0.2423625,0 L 4.6157389,6.1613811 c -0.066805,0.066809 -0.066805,0.1750449 0,0.2418458 L 5.727816,7.5153038 c 0.066805,0.066813 0.1750338,0.066801 0.2418456,0 L 7.9369835,5.5479819 c 0.066805,-0.066809 0.066805,-0.1750407 0,-0.2418456 L 7.6951376,5.0637738 C 7.661735,5.0303693 7.617997,5.0136477 7.5742148,5.0136477 Z" />
  <path
     id="path917"
     style="display:none;fill:#d588f1;fill-opacity:1;stroke-width:0.0228204"
     inkscape:label="update"
     d="M 4.2229982,1.5887919 C 3.6844581,1.5868301 3.1454474,1.7449152 2.6825236,2.0611145 2.6146032,2.1075387 2.6063211,2.2040534 2.664437,2.2621358 l 0.4433837,0.4444173 c 0.042846,0.04284 0.1093105,0.050156 0.1612305,0.01912 0.7140114,-0.4278337 1.6440941,-0.3202606 2.2448242,0.2795697 0.3338398,0.3332393 0.5235741,0.7705945 0.538985,1.2397176 h -0.646472 c -0.234355,1.38e-5 -0.3522559,0.2848978 -0.1865519,0.4506185 l 1.0392129,1.0386962 c 0.1027221,0.1027229 0.2688397,0.1027092 0.3715536,0 L 7.6692992,4.6955789 C 7.8350022,4.5298725 7.7186398,4.2449604 7.4842978,4.2449604 H 6.9308432 C 6.915531,3.5701733 6.6499771,2.900587 6.135026,2.3856425 5.6067481,1.8573664 4.91539,1.5915419 4.2229982,1.5887919 Z M 2.0215821,2.6559102 c -0.067164,1.7e-6 -0.1341614,0.025643 -0.1855184,0.076998 L 0.79736742,3.7716043 C 0.63166438,3.9373107 0.74802704,4.221706 0.98236905,4.221706 H 1.5358236 c 0.015312,0.6747873 0.2808661,1.3448903 0.7958171,1.8598349 0.5282779,0.528276 1.219636,0.7935838 1.912028,0.7963339 C 4.7822085,6.8798348 5.3212193,6.7222683 5.784143,6.4060687 5.852067,6.3596437 5.860346,6.2626127 5.80223,6.2045308 L 5.3588459,5.7601134 C 5.3160001,5.7172726 5.2495355,5.7099571 5.1976155,5.7409919 4.483604,6.168825 3.5535214,6.0617685 2.9527913,5.4619391 2.6189509,5.1286998 2.4292172,4.6908279 2.4138062,4.2217047 H 3.0602783 C 3.2946335,4.221691 3.4125342,3.9373237 3.2468301,3.771603 L 2.2076172,2.7329081 c -0.051361,-0.051361 -0.1188709,-0.077 -0.1860351,-0.076998 z" />
  <path
     id="path1320"
     d="m 7.1437505,3.0535704 v 3.2742189 c 0,0.3012735 -0.2444299,0.5457031 -0.5457033,0.5457031 H 1.8686197 c -0.3012735,0 -0.545703,-0.2444296 -0.545703,-0.5457031 V 3.0535704 c 0,-0.3012736 0.2444295,-0.545703 0.545703,-0.545703 H 2.8690755 L 3.008912,2.1338332 C 3.088494,1.9212363 3.2919955,1.7802629 3.519372,1.7802629 h 1.4267862 c 0.2273766,0 0.4308781,0.1409734 0.5104597,0.3535703 l 0.1409734,0.3740342 h 1.0004559 c 0.3012734,0 0.5457033,0.2444294 0.5457033,0.545703 z M 5.5975913,4.6906796 c 0,-0.7526155 -0.6116421,-1.3642579 -1.3642578,-1.3642579 -0.7526155,0 -1.364258,0.6116424 -1.364258,1.3642579 0,0.7526158 0.6116425,1.364258 1.364258,1.364258 0.7526157,0 1.3642578,-0.6116422 1.3642578,-1.364258 z m -0.3638022,0 c 0,0.5513878 -0.449068,1.0004559 -1.0004556,1.0004559 -0.5513875,0 -1.0004558,-0.4490681 -1.0004558,-1.0004559 0,-0.5513873 0.4490683,-1.0004557 1.0004558,-1.0004557 0.5513876,0 1.0004556,0.4490684 1.0004556,1.0004557 z"
     inkscape:connector-curvature="0"
     style="display:none;fill:#8ad891;fill-opacity:1;stroke-width:0.0113689"
     inkscape:label="preview" />
  <path
     id="path1112"
     style="display:none;fill:#d588f1;fill-opacity:1;stroke-width:0.00759522"
     d="m 4.4095518,2.1929199 c -0.1010174,0 -0.1822565,0.081228 -0.1822565,0.1822566 V 3.6801026 H 4.6305331 V 3.0704501 c 0,-0.1364343 0.1651665,-0.2032431 0.2604166,-0.1080032 l 1.0668917,1.0668916 c 0.059056,0.059681 0.059056,0.1562637 0,0.2160074 L 4.8909497,5.311882 C 4.7956994,5.407176 4.6305331,5.3407569 4.6305331,5.2042333 V 4.5945813 H 4.2272953 v 1.3049261 c 0,0.1010214 0.081241,0.1822562 0.1822565,0.1822562 h 2.5519424 c 0.1010174,0 0.1822563,-0.081236 0.1822563,-0.1822562 v -2.78074 c 0,-0.04785 -0.019112,-0.094071 -0.053291,-0.1282543 L 6.3472233,2.2462114 C 6.3130448,2.2119735 6.2665119,2.1929198 6.217903,2.1929198 Z M 1.3229197,2.4661266 v 0.5375317 c -5.859e-4,0.1049324 0.084797,0.1900262 0.1897172,0.1886512 h 0.2074807 c 0.2162762,5.64e-4 0.3920868,0.1748981 0.3943556,0.3911581 V 3.894689 C 2.1139039,4.112743 1.9371062,4.289363 1.7190517,4.289755 H 1.511571 C 1.4070567,4.2891775 1.3223393,4.3742408 1.3229197,4.4787613 v 0.5393081 h 0.5393079 c 0.1028941,5.638e-4 0.1863102,0.083997 0.1868751,0.1868748 v 0.2074807 c -6.9e-6,0.2176486 0.1756422,0.3947569 0.3932897,0.3961319 H 2.753258 c 0.2186968,0 0.3959983,-0.1774383 0.3954216,-0.3961319 V 5.2049442 C 3.1492434,5.1012413 3.2336269,5.0174644 3.3373308,5.0180694 h 0.5375316 c 0,-0.8497428 -0.00131,-1.6993646 0.00142,-2.5491004 -0.1896757,0 -0.3740743,-1.422e-4 -0.5620452,-3.547e-4 C 3.22159,2.4796882 3.149202,2.5572679 3.1486767,2.6530022 V 2.860483 C 3.1492588,3.0791765 2.9719521,3.2566149 2.7532553,3.2566149 H 2.4423924 C 2.224745,3.2549099 2.0490957,3.0781241 2.0491027,2.8604824 V 2.6526463 C 2.048547,2.5516526 1.9681757,2.4699196 1.8679121,2.4664822 1.6869164,2.466427 1.5045686,2.4662024 1.3229197,2.4661266 Z"
     inkscape:label="import" />
  <style
     type="text/css"
     id="style815">
	.st0{fill:#00005B;}
	.st1{fill:#9999FF;}
</style>
  <style
     type="text/css"
     id="style815-2">
	.st0{fill:#00005B;}
	.st1{fill:#9999FF;}
</style>
  <path
     id="path1488"
     style="display:none;fill:#d588f1;fill-opacity:1;stroke-width:0.0065804"
     d="m 5.9011758,1.8752458 c -0.040361,-2.49e-4 -0.081069,0.015057 -0.1122052,0.045806 l -1.3475304,1.331196 0.4356836,0.4356838 c 0.095753,0.095572 0.1516193,0.2261482 0.1516196,0.3650225 0,0.5021498 -0.00355,1.0116738 -0.00355,1.549571 L 5.226879,5.8066964 c 0.061498,0.062322 0.161081,0.06292 0.2233456,0.00142 0,0 1.1427761,-1.1492229 1.7164586,-1.696219 0.026374,-0.026056 0.041707,-0.061619 0.0419,-0.099068 l 0.00533,-0.8159747 C 7.2141997,3.1593154 7.1992084,3.123518 7.1727196,3.0967203 6.7862419,2.7049853 6.3991906,2.3138159 6.012316,1.9224715 5.9815518,1.8913449 5.9415375,1.8754949 5.9011758,1.8752458 Z m -4.35009,0.3696387 c -0.087519,0 -0.1580108,0.070464 -0.1580108,0.1580108 v 2.9727332 c 0,0.087519 0.070492,0.1580107 0.1580108,0.1580108 h 0.2016857 v -2.040292 c 0,-0.2898282 0.2428378,-0.5329757 0.5326205,-0.5329757 0.5813605,8.39e-4 0.9661478,0 1.6344353,0 v -0.028052 -3.545e-4 c 0,-0.03551 -0.014039,-0.069875 -0.039414,-0.095161 L 3.3282632,2.2842984 c -0.025375,-0.025424 -0.059784,-0.039414 -0.095872,-0.039414 z m 0.7339512,1.090097 c -0.087519,0 -0.1580108,0.070109 -0.1580108,0.1576556 V 6.433768 c 0,0.087519 0.070492,0.1576558 0.1580108,0.1576558 h 2.2110857 c 0.087519,0 0.1583615,-0.07013 0.1580108,-0.1576558 -0.00318,-0.7935371 -0.016548,-1.587421 0,-2.3808141 0,-0.037077 -0.014684,-0.073323 -0.041189,-0.099778 L 4.0362934,3.3761707 c -0.026505,-0.026592 -0.062438,-0.041188 -0.1001325,-0.041188 -0.5503195,6.7e-6 -1.1008044,0 -1.6511239,-1.2e-6 z"
     inkscape:label="open" />
  <path
     id="path1112-8"
     style="display:none;fill:#8ad891;fill-opacity:1;stroke-width:0.0114013"
     d="m 3.0329605,1.3063803 c -0.1516377,0 -0.2736821,0.1220444 -0.2736821,0.2736821 v 0.7111482 c 0.04786,-0.020641 0.0983,-0.034132 0.1496035,-0.04006 0.1553929,-0.017954 0.3316728,0.035659 0.454128,0.1581116 l 1.4981613,1.499225 a 0.34036417,0.34036417 0 0 1 0.00141,0.00141 c 0.211512,0.2137973 0.2115112,0.5686072 0,0.7824048 a 0.34036417,0.34036417 0 0 1 -0.00141,0.00141 L 3.3630099,6.1915352 C 3.1985577,6.3559856 2.9494676,6.3895304 2.7603419,6.3120688 2.7600001,6.311929 2.7596217,6.3118552 2.7592786,6.3117143 v 0.5583541 c 0,0.1516378 0.1220444,0.2736821 0.2736822,0.2736821 h 3.8308407 c 0.1516371,4.3e-6 0.2736822,-0.1220443 0.2736822,-0.2736821 V 2.6960615 c 0,-0.071826 -0.028458,-0.1411849 -0.079766,-0.1924992 L 5.9413648,1.3861452 C 5.8900588,1.3348035 5.8207707,1.3063803 5.747802,1.3063803 Z m -0.062748,1.281201 c -0.00763,7.7e-5 -0.015143,5.463e-4 -0.022689,0.00141 -0.1006079,0.011626 -0.1914359,0.093191 -0.1914359,0.213061 V 3.6585575 H 1.5429529 c -0.1186311,0 -0.2137696,0.095492 -0.2137699,0.2141245 v 0.856143 c 0,0.1186317 0.095139,0.2141241 0.2137699,0.2141241 h 1.213135 v 0.856143 c 0,0.1917693 0.2320602,0.2858783 0.3658549,0.1520851 L 4.620104,4.4523066 c 0.082953,-0.083849 0.082953,-0.2192581 0,-0.3031065 L 3.1219428,2.6503297 c -0.043901,-0.0439 -0.098353,-0.063287 -0.1517303,-0.062748 z"
     inkscape:label="saveas" />
  <style
     id="style815-3"
     type="text/css">
	.st0{fill:#00005B;}
	.st1{fill:#9999FF;}
</style>
  <style
     id="style815-2-5"
     type="text/css">
	.st0{fill:#00005B;}
	.st1{fill:#9999FF;}
</style>
  <style
     type="text/css"
     id="style815-4">
	.st0{fill:#00005B;}
	.st1{fill:#9999FF;}
</style>
  <style
     type="text/css"
     id="style815-2-4">
	.st0{fill:#00005B;}
	.st1{fill:#9999FF;}
</style>
  <style
     type="text/css"
     id="style815-43">
	.st0{fill:#00005B;}
	.st1{fill:#9999FF;}
</style>
  <style
     type="text/css"
     id="style815-2-3">
	.st0{fill:#00005B;}
	.st1{fill:#9999FF;}
</style>
  <style
     id="style815-4-3"
     type="text/css">
	.st0{fill:#00005B;}
	.st1{fill:#9999FF;}
</style>
  <style
     id="style815-2-4-8"
     type="text/css">
	.st0{fill:#00005B;}
	.st1{fill:#9999FF;}
</style>
  <style
     type="text/css"
     id="style815-1">
	.st0{fill:#00005B;}
	.st1{fill:#9999FF;}
</style>
  <style
     type="text/css"
     id="style815-2-8">
	.st0{fill:#00005B;}
	.st1{fill:#9999FF;}
</style>
  <style
     id="style815-4-5"
     type="text/css">
	.st0{fill:#00005B;}
	.st1{fill:#9999FF;}
</style>
  <style
     id="style815-2-4-9"
     type="text/css">
	.st0{fill:#00005B;}
	.st1{fill:#9999FF;}
</style>
  <path
     id="path2224"
     style="display:none;fill:#d588f1;fill-opacity:1;stroke-width:0.00972609"
     d="M 6.521285,1.6000241 H 1.9453818 c -0.3433285,0 -0.6224651,0.2791359 -0.6224651,0.622466 v 1.9905807 c 0,0.3433243 0.2791366,0.6224601 0.6224651,0.6224601 h 0.9336977 v 1.1328803 c 0,0.095318 0.1089314,0.1507593 0.1857669,0.094347 L 4.279626,4.8355309 h 2.241659 c 0.3433284,0 0.6224655,-0.2791358 0.6224655,-0.6224601 V 2.2224901 c 0,-0.3433301 -0.2791371,-0.622466 -0.6224655,-0.622466 z m -0.4678012,3.715218 c -0.035881,0 -0.071683,0.013767 -0.099058,0.041143 L 4.6396828,6.6713904 4.0256817,6.0573894 c -0.054749,-0.054752 -0.1436284,-0.054752 -0.1983776,0 L 3.6291884,6.255767 c -0.054749,0.054752 -0.054749,0.1433695 0,0.1981155 l 0.9111745,0.9114366 c 0.054749,0.054756 0.1436226,0.054746 0.1983776,0 L 6.3509193,5.7528783 c 0.054749,-0.054752 0.054749,-0.1433661 0,-0.1981155 L 6.1528037,5.3563851 c -0.027375,-0.027376 -0.063439,-0.041143 -0.09932,-0.041143 z"
     inkscape:label="savecomment" />
  <path
     id="path1112-3"
     style="display:none;fill:#8ad891;fill-opacity:1;stroke-width:0.0114011"
     d="m 2.1542492,1.3063803 c -0.1516343,0 -0.2733205,0.1220383 -0.2733205,0.2736768 v 5.2900165 c 0,0.1516385 0.1216862,0.2736769 0.2733205,0.2736769 h 3.830763 c 0.1516347,0 0.2733205,-0.1220384 0.2733205,-0.2736769 V 3.1305361 2.7659901 2.6961454 c 0,-0.071826 -0.02816,-0.1411174 -0.079466,-0.192429 L 5.0627782,1.3862027 C 5.0114735,1.334829 4.941891,1.3063803 4.8689238,1.3063803 H 4.7994356 4.4345331 Z m 1.918945,1.2354656 c 0.3744367,0 0.6777778,0.3033361 0.6777778,0.6777778 0,0.1174422 -0.032554,0.2262177 -0.085168,0.3224968 L 5.0317759,4.1757107 C 4.8689928,4.3393549 4.6686263,4.4575727 4.4480745,4.5210141 L 4.0874481,3.8963323 c -0.00488,0 -0.00967,0.00108 -0.014611,0.00108 -0.00494,0 -0.00932,-9.31e-4 -0.014255,-0.00108 L 3.5828552,4.7202138 c 0.1566392,0.051422 0.3213399,0.081248 0.4903377,0.081248 0.5384911,0 1.0381469,-0.2743524 1.328473,-0.7230343 0.032839,-0.050615 0.097199,-0.069575 0.1500234,-0.040267 l 0.1981305,0.1101123 c 0.056075,0.031079 0.077084,0.1037309 0.042762,0.1578629 -0.3716119,0.5870802 -1.0198804,0.9475347 -1.7193891,0.9475347 -0.2498598,0 -0.4935644,-0.047528 -0.7208962,-0.1339876 L 2.852339,5.9856126 2.5198644,6.17626 C 2.4077695,6.2241444 2.2811282,6.1510951 2.2664995,6.0301565 L 2.265072,5.6467237 2.7685947,4.7747353 C 2.618243,4.6489491 2.4830064,4.503742 2.3730482,4.336781 2.337808,4.2833318 2.3575206,4.2102707 2.4129594,4.1782052 L 2.6089518,4.0645297 c 0.052331,-0.030341 0.1172658,-0.012428 0.1510925,0.037773 0.068644,0.1017612 0.1490546,0.1935089 0.2376855,0.2754584 L 3.4802277,3.5421205 c -0.052542,-0.096265 -0.085168,-0.2050546 -0.085168,-0.3224968 0,-0.3744417 0.3036975,-0.6777778 0.6781345,-0.6777778 z m 0,0.4518518 c -0.1247887,0 -0.2262823,0.1011466 -0.2262823,0.225926 0,0.1247862 0.1014936,0.2262822 0.2262823,0.2262822 0.1247889,0 0.2259259,-0.101496 0.2259259,-0.2262822 0,-0.1247794 -0.101137,-0.225926 -0.2259259,-0.225926 z m 1.4193422,1.9805937 0.3884215,0.6724323 -0.00108,0.3834328 C 5.8652562,6.1511846 5.7386118,6.2242546 5.6265165,6.17626 L 5.2936856,5.9856126 4.9098967,5.3206635 C 5.1211263,5.2368314 5.3156214,5.1178686 5.4925289,4.9742914 Z"
     inkscape:label="publishtemplate" />
  <path
     id="path861"
     style="display:none;fill:#8ad891;fill-opacity:1;stroke-width:0.00868654"
     d="m 1.5290055,1.3063805 c -0.1155306,0 -0.2084393,0.092902 -0.2084393,0.2084393 v 4.0305395 c 0,0.1155374 0.092909,0.2084393 0.2084393,0.2084393 H 2.4301048 V 2.9044153 c 0,-0.2651299 0.2230106,-0.4881399 0.4881399,-0.4881399 h 1.7377069 v -0.050952 c 0,-0.054697 -0.021483,-0.1080733 -0.060572,-0.1471546 L 3.7448758,1.3673089 C 3.7057863,1.3282276 3.6529586,1.3063803 3.597365,1.3063803 Z m 1.3899519,1.3899518 c -0.1155307,0 -0.2084394,0.092911 -0.2084394,0.2084394 v 4.0305395 c 0,0.1155374 0.092909,0.2084393 0.2084394,0.2084393 h 2.9185068 c 0.1155304,0 0.2084394,-0.092902 0.2084394,-0.2084393 V 5.8207844 L 5.2028822,6.6638057 c -0.2102218,0.2101886 -0.5586696,0.2102691 -0.7689095,0 L 3.2178986,5.4477314 c -0.2102524,-0.2102414 -0.2102273,-0.5586677 0,-0.7689096 a 0.35705984,0.35705984 0 0 1 0,-0.00142 L 3.483347,4.4133735 v 0.00142 c 0.208687,-0.2087001 0.5587971,-0.2087015 0.7674842,0 L 4.81914,4.9806135 6.0459036,3.7549191 v -3.563e-4 c -9.33e-5,-0.054596 -0.021568,-0.107446 -0.060572,-0.146442 L 5.1348277,2.7569044 c -0.03909,-0.039081 -0.092274,-0.060572 -0.1478673,-0.060572 z m 3.787182,0.9791303 c -0.047899,0 -0.095646,0.018325 -0.1321897,0.054871 L 4.81914,5.4858562 3.9992788,4.6659949 c -0.073086,-0.073092 -0.1916491,-0.073092 -0.2647358,0 l -0.2643795,0.265092 c -0.073086,0.073091 -0.073086,0.1912972 0,0.2643794 l 1.2160743,1.2167868 c 0.073086,0.073097 0.1919977,0.073083 0.2650921,0 l 2.1520914,-2.152804 c 0.073086,-0.073092 0.073086,-0.1912928 0,-0.2643795 L 6.8390418,3.7303338 C 6.8024986,3.6937878 6.7540385,3.675463 6.7061394,3.6754626 Z"
     inkscape:label="saveincremental" />
  <path
     id="path1413"
     style="display:none;fill:#d588f1;fill-opacity:1;stroke-width:0.0113671"
     d="m 1.8647176,1.3063803 c -0.1511823,0 -0.2728609,0.1216745 -0.2728609,0.2728609 v 5.2742459 c 0,0.1511863 0.1216786,0.2728609 0.2728609,0.2728609 H 5.6840604 C 5.835243,7.126348 5.956566,6.9864693 5.956566,6.8534871 5.955366,6.2273934 5.955516,5.778922 5.955496,5.2905765 L 4.8523318,6.3944552 c -0.2120419,0.2120077 -0.5628281,0.2120803 -0.7748825,0 L 2.5440277,4.8606782 c -0.2109942,-0.210981 -0.2109723,-0.5624759 0,-0.7734612 L 2.8783534,3.7528913 c 0.2109798,-0.2109929 0.5624815,-0.2109929 0.7734614,0 L 4.4640023,4.5668554 5.9562107,3.0746471 c 7.19e-5,-0.1198703 3.553e-4,-0.2654831 3.553e-4,-0.3826448 0,-0.071613 -0.028431,-0.1406967 -0.079584,-0.1918554 L 4.7642204,1.3859647 C 4.7130686,1.3347442 4.6436936,1.3063803 4.570944,1.3063803 Z M 6.8433641,2.725044 c -0.060365,0 -0.1205756,0.023224 -0.16663,0.069281 L 4.464713,5.0067016 3.4318916,3.9735249 c -0.092108,-0.092114 -0.2418621,-0.092114 -0.3339704,0 L 2.7646614,4.3074954 c -0.092109,0.092114 -0.092109,0.241157 0,0.3332598 L 4.2977277,6.174177 c 0.092109,0.09212 0.2414972,0.092103 0.3336151,0 L 7.3436091,3.4612001 c 0.092108,-0.092114 0.092108,-0.2411514 0,-0.3332598 L 7.0103492,2.7943252 C 6.9642947,2.748268 6.9037293,2.725044 6.8433641,2.725044 Z"
     sodipodi:nodetypes="sssssccccccccccsccssscccccccccccs"
     inkscape:label="save" />
  <path
     id="path985"
     style="fill:#d588f1;fill-opacity:1;stroke-width:0.0064809"
     d="m 5.3041264,2.0837456 c -0.2812891,0 -0.5094952,0.2281807 -0.5087533,0.5094637 V 2.8600206 C 4.7946444,2.9934021 4.6861044,3.1013252 4.5527205,3.1005415 H 3.8613562 c 0,0.3624217 2.365e-4,0.724744 3.638e-4,1.0871402 h 0.3780121 v -0.495608 c 0,-0.1109692 0.133956,-0.1651514 0.2113885,-0.087753 l 0.8675805,0.8672252 c 0.048007,0.048531 0.048007,0.1269683 0,0.1755057 L 4.4511206,5.514277 C 4.3736876,5.591737 4.2397321,5.537507 4.2397321,5.426524 V 4.9309162 H 3.86172 c -1.157e-4,0.4827169 -5.821e-4,0.965347 -0.00213,1.4480992 0.2439625,0 0.4812142,4.365e-4 0.7229839,7.081e-4 0.1191588,-0.014298 0.2121318,-0.1141912 0.2128076,-0.237322 V 5.8755913 C 4.794639,5.5943013 5.0228453,5.3661275 5.3041347,5.3661275 h 0.3996839 c 0.2799395,0.00138 0.5059196,0.2295282 0.5059109,0.5094638 v 0.2671665 c 7.081e-4,0.1298959 0.1041005,0.2350414 0.2330602,0.239455 0.2327982,6.88e-5 0.467319,6.003e-4 0.7009568,7.082e-4 V 5.6912027 C 7.1445105,5.556233 7.0346209,5.4471318 6.8996728,5.4489054 H 6.6328616 C 6.3546858,5.4482142 6.1284476,5.2236363 6.1255296,4.9454814 V 4.5454432 C 6.126257,4.2649852 6.3538195,4.037554 6.6342828,4.0370452 H 6.901094 C 7.0355044,4.0377327 7.1444847,3.9284708 7.1437382,3.7940375 V 3.1005415 H 6.4502421 C 6.3178993,3.099854 6.2104475,2.9923365 6.2097212,2.8600206 V 2.5932093 C 6.2097299,2.3132738 5.9837499,2.0855125 5.7038102,2.0837456 Z M 1.3229192,3.0930807 v 0.4586594 c -5e-4,0.08954 0.072479,0.1624704 0.1620052,0.1612947 h 0.1769268 c 0.1845454,4.73e-4 0.3345091,0.1490715 0.336445,0.3336028 V 4.3120278 C 1.9978104,4.4980923 1.846848,4.6488466 1.6607853,4.6491833 H 1.4838586 C 1.394678,4.6486883 1.3224239,4.7212958 1.3229192,4.810478 v 0.4604359 h 0.4600806 c 0.087798,4.729e-4 0.1590365,0.071376 0.1595183,0.159163 v 0.1772822 c -5.7e-6,0.1857137 0.1500191,0.3366972 0.3357345,0.3378659 h 0.2650348 c 0.1866107,0 0.3380031,-0.1512583 0.3375109,-0.3378659 V 5.4300769 c 4.821e-4,-0.088488 0.072451,-0.1596785 0.1609394,-0.159163 h 0.4586595 c 0,-0.7250699 -9.075e-4,-1.4502762 0.00142,-2.1753463 -0.1618477,0 -0.3192278,-1.765e-4 -0.4796208,-3.547e-4 -0.079053,0.00942 -0.140951,0.075698 -0.1413993,0.1573866 V 3.4298817 C 2.8812925,3.6164892 2.7298959,3.7677476 2.5432851,3.7677476 H 2.2782526 C 2.0925372,3.7663726 1.9425124,3.6155949 1.9425181,3.4298811 V 3.2522437 C 1.9420441,3.1660657 1.8735272,3.0963716 1.7879737,3.0934359 1.6335326,3.0933947 1.4779175,3.0931426 1.3229192,3.0930807 Z"
     inkscape:label="replace" />
  <style
     type="text/css"
     id="style815-8">
	.st0{fill:#00005B;}
	.st1{fill:#9999FF;}
</style>
  <style
     type="text/css"
     id="style815-2-81">
	.st0{fill:#00005B;}
	.st1{fill:#9999FF;}
</style>
</svg>
