<?xml version="1.0" encoding="UTF-8" standalone="no"?>
<svg
   xmlns:dc="http://purl.org/dc/elements/1.1/"
   xmlns:cc="http://creativecommons.org/ns#"
   xmlns:rdf="http://www.w3.org/1999/02/22-rdf-syntax-ns#"
   xmlns:svg="http://www.w3.org/2000/svg"
   xmlns="http://www.w3.org/2000/svg"
   xmlns:sodipodi="http://sodipodi.sourceforge.net/DTD/sodipodi-0.dtd"
   xmlns:inkscape="http://www.inkscape.org/namespaces/inkscape"
   width="32"
   height="32"
   viewBox="0 0 8.4666666 8.4666666"
   version="1.1"
   id="svg8"
   inkscape:version="1.0.2-2 (e86c870879, 2021-01-15)"
   sodipodi:docname="saveincremental_sl.svg">
  <defs
     id="defs2" />
  <sodipodi:namedview
     id="base"
     pagecolor="#ffffff"
     bordercolor="#666666"
     borderopacity="1.0"
     inkscape:pageopacity="0.0"
     inkscape:pageshadow="2"
     inkscape:zoom="3.9999998"
     inkscape:cx="-92.902151"
     inkscape:cy="-22.772807"
     inkscape:document-units="mm"
     inkscape:current-layer="svg8"
     showgrid="false"
     units="px"
     inkscape:window-width="3440"
     inkscape:window-height="1417"
     inkscape:window-x="1915"
     inkscape:window-y="-8"
     inkscape:window-maximized="1"
     inkscape:document-rotation="0">
    <sodipodi:guide
       position="8.4666666,0"
       orientation="-32,0"
       id="guide854"
       inkscape:locked="false" />
    <sodipodi:guide
       position="8.4666666,8.4666666"
       orientation="0,-32"
       id="guide856"
       inkscape:locked="false" />
    <sodipodi:guide
       position="0,8.4666814"
       orientation="32,0"
       id="guide858"
       inkscape:locked="false" />
  </sodipodi:namedview>
  <metadata
     id="metadata5">
    <rdf:RDF>
      <cc:Work
         rdf:about="">
        <dc:format>image/svg+xml</dc:format>
        <dc:type
           rdf:resource="http://purl.org/dc/dcmitype/StillImage" />
        <dc:title />
      </cc:Work>
    </rdf:RDF>
  </metadata>
  <path
     style="fill:#8ad891;fill-opacity:1;stroke-width:0.0108778"
     d="m 3.095408,1.47089 c -0.1446748,0 -0.2611152,0.116102 -0.2611152,0.2607769 v 1.2629583 c 0.066141,-0.00744 0.1324369,-0.012419 0.1988805,-0.012176 0.440247,0.00175 0.8836964,0.1730718 1.2183117,0.5076861 0.2327039,0.2327007 0.3573025,0.5223397 0.4295547,0.8219038 0.1792317,0.04314 0.3587362,0.127838 0.4231281,0.2837767 0.078731,0.1906639 0.041552,0.4482022 -0.1214253,0.6111853 L 4.4879091,5.702849 c -0.2162363,0.2162217 -0.5775799,0.216252 -0.7938305,0 L 3.597006,5.6057764 C 3.5244844,5.8111026 3.3242912,5.9223028 3.108599,5.9240527 3.1070162,6.1261262 3.0120362,6.3228985 2.8342928,6.407048 v 0.3720553 c 0,0.1446749 0.1164404,0.261115 0.2611152,0.261115 h 3.6549351 c 0.1446746,-1e-7 0.2611151,-0.1164402 0.2611151,-0.2611151 V 3.2110936 H 5.5320313 c -0.143587,0 -0.261115,-0.1175267 -0.261115,-0.261115 V 1.47089 Z m 2.5235489,0 V 2.863053 H 7.0114582 V 2.796759 c 0,-0.068528 -0.027152,-0.1350402 -0.076102,-0.1839982 L 5.8702633,1.5469922 C 5.8213132,1.498008 5.7552067,1.47089 5.6855887,1.47089 Z M 3.0318203,3.4187681 C 2.7751152,3.417833 2.5181799,3.4929699 2.2975186,3.6436924 c -0.032373,0.022129 -0.036492,0.068372 -0.00879,0.096058 l 0.2117332,0.211395 c 0.020423,0.020421 0.05203,0.024263 0.076779,0.00947 0.3403466,-0.203935 0.7834785,-0.1529947 1.0698279,0.1329253 0.159131,0.1588451 0.2497092,0.367613 0.2570563,0.5912295 H 3.5959914 c -0.111709,6.6e-6 -0.1679407,0.1354452 -0.088955,0.214439 l 0.4955098,0.4951712 c 0.048964,0.048965 0.1279341,0.048958 0.1768953,0 L 4.6746131,4.8992096 c 0.078985,-0.078987 0.023426,-0.214439 -0.088278,-0.214439 H 4.3225136 C 4.3152143,4.3631204 4.1888168,4.0437222 3.9433556,3.7982644 3.6915419,3.5464515 3.3618617,3.4200772 3.0318203,3.4187681 Z"
     id="path1112"
     sodipodi:nodetypes="ssccccsccscccsssscsscscccsccscccccccccccccsccc" />
  <path
     id="path2133"
     d="M 3.2227275,4.9600612 H 2.6255791 V 4.362912 c 0,-0.073274 -0.059424,-0.1326979 -0.1326996,-0.1326979 H 2.3601797 c -0.073275,0 -0.1326997,0.059424 -0.1326997,0.1326979 V 4.9600612 H 1.6303316 c -0.073275,0 -0.1326997,0.059424 -0.1326997,0.1327022 v 0.1327002 c 0,0.073271 0.059424,0.1326978 0.1326997,0.1326978 H 2.22748 v 0.597147 c 0,0.073278 0.059424,0.1327023 0.1326997,0.1327023 h 0.1326998 c 0.073275,0 0.1326996,-0.059424 0.1326996,-0.1327023 v -0.597147 h 0.5971484 c 0.073275,0 0.1326997,-0.059426 0.1326997,-0.1326978 V 5.0927634 c 0,-0.073278 -0.059424,-0.1327022 -0.1326997,-0.1327022 z"
     inkscape:connector-curvature="0"
     style="fill:#8ad891;fill-opacity:1;stroke-width:0.00414686" />
</svg>
